<mxfile host="app.diagrams.net" modified="2024-07-19T03:29:43.343Z" agent="Mozilla/5.0 (Windows NT 10.0; Win64; x64) AppleWebKit/537.36 (KHTML, like Gecko) Chrome/126.0.0.0 Safari/537.36 Edg/126.0.0.0" version="24.7.1" etag="gL_LkyTvjhkZ0azTpTk0" type="github">
  <diagram name="第 1 页" id="_ptrRFgUfufC5udD_pL1">
    <mxGraphModel>
      <root>
        <mxCell id="0" />
        <mxCell id="1" parent="0" />
      </root>
    </mxGraphModel>
  </diagram>
</mxfile>
